<svg width='200' height='200' fill="Black" xmlns:dc="http://purl.org/dc/elements/1.1/" xmlns:cc="http://creativecommons.org/ns#" xmlns:rdf="http://www.w3.org/1999/02/22-rdf-syntax-ns#" xmlns:svg="http://www.w3.org/2000/svg" xmlns="http://www.w3.org/2000/svg" xmlns:sodipodi="http://sodipodi.sourceforge.net/DTD/sodipodi-0.dtd" xmlns:inkscape="http://www.inkscape.org/namespaces/inkscape" version="1.1" x="0px" y="0px" viewBox="0 0 100 100"><g transform="translate(0,-952.36218)"><path style="color:#000000;enable-background:accumulate;" d="m 77.207522,962.42684 c -7.396595,-2.62579 -15.956695,-1.0139 -21.876095,4.90557 -5.9196,5.91939 -7.5313,14.47961 -4.9056,21.87609 l -38.935001,38.9351 c -3.5258001,3.5256 -3.5258001,9.2023 -10e-5,12.7279 3.5256,3.5256 9.202201,3.5256 12.727901,0 l 38.9351,-38.9351 c 7.396495,2.6258 15.956695,1.0139 21.875995,-4.90557 5.9196,-5.9194 7.5314,-14.47962 4.9056,-21.8761 l -8.441,8.44111 c -3.5256,3.52563 -9.2023,3.52565 -12.727895,1e-5 -3.5256,-3.52563 -3.5257,-9.20233 -10e-5,-12.72795 l 8.441195,-8.44106 z" fill="Black" stroke="none" marker="none" visibility="visible" display="inline" overflow="visible"/></g></svg>