<svg width='200' height='200' fill="#000000" xmlns="http://www.w3.org/2000/svg" data-name="Layer 1" viewBox="0 0 100 100" x="0px" y="0px"><title>02</title><g data-name="Group"><path data-name="Compound Path" d="M50,5.21A44.79,44.79,0,1,0,94.79,50,44.84,44.84,0,0,0,50,5.21ZM84.35,32H71.24C69.61,24.64,67,18.35,63.72,13.72A39,39,0,0,1,84.35,32ZM11.21,50a38.63,38.63,0,0,1,1.91-12H27.69a88.94,88.94,0,0,0,0,24H13.12A38.63,38.63,0,0,1,11.21,50Zm21.67,0a77.86,77.86,0,0,1,1-12H47V62H33.83A77.86,77.86,0,0,1,32.88,50ZM65,32H53V11.84C58.35,14.09,62.59,22.18,65,32ZM47,11.84V32H35C37.41,22.18,41.65,14.09,47,11.84ZM47,68V88.16C41.65,85.91,37.41,77.82,35,68Zm6,20.16V68H65C62.59,77.82,58.35,85.91,53,88.16ZM53,62V38H66.17a77.86,77.86,0,0,1,1,12,77.86,77.86,0,0,1-1,12ZM72.31,38H86.88a38.68,38.68,0,0,1,0,24H72.31a87.63,87.63,0,0,0,.81-12A87.63,87.63,0,0,0,72.31,38Zm-36-24.28C33,18.35,30.39,24.64,28.76,32H15.65A39,39,0,0,1,36.28,13.72ZM15.65,68H28.76c1.63,7.36,4.23,13.65,7.52,18.28A39,39,0,0,1,15.65,68ZM63.72,86.28C67,81.65,69.61,75.36,71.24,68H84.35A39,39,0,0,1,63.72,86.28Z"/></g></svg>